<?xml version="1.0" encoding="UTF-8"?>
<svg id="Layer_2" data-name="Layer 2" xmlns="http://www.w3.org/2000/svg" width="283.46" height="300.39" viewBox="0 0 283.46 300.39">
  <defs>
    <style>
      .cls-1 {
        fill: #0033a1;
      }
    </style>
  </defs>
  <g id="Layer_1-2" data-name="Layer 1">
    <g>
      <g>
        <path class="cls-1" d="m11.32,264.37h4.79l11.36,28.07h-6.74l-1.51-3.89h-10.97l-1.51,3.89H0l11.32-28.07Zm5.66,18.4l-3.28-8.29-3.2,8.29h6.48Z"/>
        <path class="cls-1" d="m30.28,272.57h6.13v1.64c1.51-1.47,3.5-1.94,5.27-1.94,3.46,0,7.73,1.81,7.73,8.03v12.14h-6.18v-11.14c0-3.37-2.38-3.84-3.46-3.84s-3.37.47-3.37,3.84v11.14h-6.13v-19.87Z"/>
        <path class="cls-1" d="m53.13,282.51c0-6.05,3.97-10.24,9.33-10.24,2.2,0,3.89.73,5.14,1.94v-1.64h6.13v19.87h-6.13v-1.64c-1.25,1.25-2.94,1.99-5.14,1.99-5.36,0-9.33-4.36-9.33-10.28Zm14.47,0c0-2.59-1.64-4.45-4.23-4.45s-4.28,1.86-4.28,4.45,1.68,4.49,4.28,4.49,4.23-1.9,4.23-4.49Z"/>
        <path class="cls-1" d="m77.49,282.51c0-6.05,3.97-10.24,9.33-10.24,2.2,0,3.89.73,5.14,1.94v-9.85h6.13v28.07h-6.13v-1.64c-1.25,1.25-2.94,1.99-5.14,1.99-5.36,0-9.33-4.36-9.33-10.28Zm14.47,0c0-2.59-1.64-4.45-4.23-4.45s-4.28,1.86-4.28,4.45,1.68,4.49,4.28,4.49,4.23-1.9,4.23-4.49Z"/>
        <path class="cls-1" d="m101.85,282.51c0-6.05,4.28-10.37,10.32-10.37s10.28,4.32,10.28,10.37-4.28,10.37-10.28,10.37-10.32-4.45-10.32-10.37Zm14.51,0c0-2.55-1.64-4.45-4.19-4.45s-4.28,1.9-4.28,4.45,1.68,4.49,4.28,4.49,4.19-1.94,4.19-4.49Z"/>
        <path class="cls-1" d="m126.16,264.37h6.18l-.04,28.07h-6.13v-28.07Z"/>
        <path class="cls-1" d="m136.87,284.71v-12.14h6.13v11.19c0,3.37,2.42,3.84,3.45,3.84s3.37-.47,3.37-3.84v-11.19h6.18v19.87h-6.18v-1.6c-1.51,1.47-3.5,1.94-5.27,1.94-3.46,0-7.69-1.81-7.69-8.08Z"/>
        <path class="cls-1" d="m179.2,264.37h4.79l11.36,28.07h-6.74l-1.51-3.89h-10.97l-1.51,3.89h-6.74l11.32-28.07Zm5.66,18.4l-3.28-8.29-3.2,8.29h6.48Z"/>
        <path class="cls-1" d="m195.4,295.64h.86c1.3,0,2.59.04,2.59-2.42v-20.65h6.18v21.98c0,3.15-1.77,5.83-6.52,5.83h-3.11v-4.75Zm3.15-28.94c0-2.07,1.73-3.2,3.33-3.2s3.33,1.12,3.33,3.2-1.68,3.37-3.28,3.37-3.37-1.25-3.37-3.37Z"/>
        <path class="cls-1" d="m208.92,282.51c0-6.05,3.97-10.24,9.33-10.24,2.2,0,3.89.73,5.14,1.94v-1.64h6.13v19.87h-6.13v-1.64c-1.25,1.25-2.94,1.99-5.14,1.99-5.36,0-9.33-4.36-9.33-10.28Zm14.47,0c0-2.59-1.64-4.45-4.23-4.45s-4.28,1.86-4.28,4.45,1.68,4.49,4.28,4.49,4.23-1.9,4.23-4.49Z"/>
        <path class="cls-1" d="m234.1,272.57h6.13v1.64c1.51-1.47,3.5-1.94,5.27-1.94,3.46,0,7.73,1.81,7.73,8.03v12.14h-6.18v-11.14c0-3.37-2.38-3.84-3.46-3.84s-3.37.47-3.37,3.84v11.14h-6.13v-19.87Z"/>
        <path class="cls-1" d="m256.51,288.21l4.19-2.85c.35.91,2.72,2.85,4.97,2.85,1.51,0,2.29-.43,2.29-1.38,0-1.25-2.25-1.64-3.67-2.16-1.43-.52-6.82-1.9-6.82-6.35s3.89-6.22,8.12-6.22c4.45,0,7.34,2.16,8.42,4.28l-3.97,2.63c-.6-.86-2.76-2.2-4.66-2.2-1.38,0-1.94.52-1.94,1.21,0,1.34,2.2,1.73,3.63,2.25,1.47.52,6.87,2.03,6.87,6.35s-3.2,6.44-8.29,6.44-8.12-2.51-9.11-4.84Z"/>
        <path class="cls-1" d="m277.29,272.57h6.18l-.04,19.87h-6.13v-19.87Z"/>
      </g>
      <g>
        <path class="cls-1" d="m48.94,143.55c-1.53-6.79-2.33-13.86-2.32-21.12.07-51.73,42.09-94.29,93.82-94.98,53.13-.71,96.42,42.14,96.42,95.11,0,7.2-.8,14.21-2.31,20.95-.07.33-.04.67.08.98l13.72,32.92c.54,1.29,2.35,1.36,2.98.11,8.43-16.78,13.13-35.77,12.98-55.86C263.81,54.93,209.31.46,142.59,0,74.5-.46,19.17,54.59,19.17,122.56c0,19.86,4.73,38.61,13.11,55.2.58,1.15,2.25,1.09,2.74-.1l13.84-33.22c.12-.28.14-.6.08-.9Z"/>
        <g>
          <path class="cls-1" d="m191.89,72.49c-.25-.61-.85-1-1.51-1h-40.89c-.9,0-1.63.73-1.63,1.63v170.36c0,.9.73,1.63,1.63,1.63h24.18c.9,0,1.63-.73,1.63-1.63v-40.78c0-.9.73-1.63,1.63-1.63h40.47c.66,0,1.25.39,1.51,1,3.71,8.93,13.66,32.8,17.52,42.04.25.61.85,1,1.51,1h23.89c1.17,0,1.96-1.18,1.51-2.26-22.34-53.25-49.16-117.22-71.45-170.37Zm12.72,101.14h-27.67c-.9,0-1.63-.73-1.63-1.63v-66.34c0-.9.73-1.63,1.63-1.63h.02c.66,0,1.25.4,1.51,1.01l27.64,66.34c.45,1.08-.34,2.26-1.51,2.26Z"/>
          <path class="cls-1" d="m133.96,71.5h-40.89c-.66,0-1.25.39-1.51,1-22.29,53.15-49.11,117.12-71.45,170.37-.45,1.08.34,2.26,1.51,2.26h23.89c.66,0,1.25-.39,1.51-1,3.85-9.24,13.8-33.12,17.52-42.04.25-.61.85-1,1.51-1h40.47c.9,0,1.63.73,1.63,1.63v40.78c0,.9.73,1.63,1.63,1.63h24.18c.9,0,1.63-.73,1.63-1.63V73.13c0-.9-.73-1.63-1.63-1.63Zm-25.81,100.5c0,.9-.73,1.63-1.63,1.63h-27.67c-1.17,0-1.96-1.19-1.51-2.26l27.64-66.34c.25-.61.85-1.01,1.51-1.01h.02c.9,0,1.63.73,1.63,1.63v66.34Z"/>
        </g>
      </g>
    </g>
  </g>
</svg>